<svg id="Layer_1" data-name="Layer 1" xmlns="http://www.w3.org/2000/svg" viewBox="0 0 386.84 98"><defs><style>.cls-1{fill:#52b985;}.cls-2{fill:#c4c4c4;fill-opacity:0.3;}</style></defs><title>POLITICO LOGO</title><path class="cls-1" d="M259.16,302V326H245.09V257.75h26.63a30.75,30.75,0,0,1,13.5,2.81,20.64,20.64,0,0,1,9,8,22.2,22.2,0,0,1,3.14,11.76q0,10-6.89,15.85t-19,5.76Zm0-11.39h12.56q5.58,0,8.48-2.62t3-7.5a11.24,11.24,0,0,0-3-8.11,11,11,0,0,0-8.15-3.19H259.16ZM313,300.17a30.18,30.18,0,0,1,2.9-13.45,21.27,21.27,0,0,1,8.35-9.14,24.48,24.48,0,0,1,12.7-3.24q10.26,0,16.73,6.29T361,297.69l.09,3.47q0,11.67-6.51,18.75t-17.49,7q-11,0-17.53-7T313,300.78Zm13.54,1q0,7.21,2.72,11.06a9.81,9.81,0,0,0,15.47,0q2.76-3.81,2.77-12.1,0-7.08-2.77-11a9,9,0,0,0-7.78-3.89,8.84,8.84,0,0,0-7.69,3.89Q326.55,293.05,326.55,301.16ZM393.29,326H379.7V254h13.59Zm35.1,0H414.8V275.28h13.59ZM414,262.16a6.74,6.74,0,0,1,2-5,8.82,8.82,0,0,1,11.11,0,7.13,7.13,0,0,1-.05,10.08,7.61,7.61,0,0,1-5.48,2,7.78,7.78,0,0,1-5.53-2A6.67,6.67,0,0,1,414,262.16Zm51.42.65v12.47h8.67v9.94h-8.67v25.31a6.08,6.08,0,0,0,1.07,4c.72.82,2.1,1.22,4.13,1.22a21.39,21.39,0,0,0,4-.33v10.27a27.93,27.93,0,0,1-8.2,1.22q-14.25,0-14.53-14.39V285.22h-7.41v-9.94h7.41V262.81ZM505.53,326H491.94V275.28h13.59Zm-14.39-63.84a6.7,6.7,0,0,1,2-5,8.82,8.82,0,0,1,11.11,0,7.13,7.13,0,0,1,0,10.08,7.63,7.63,0,0,1-5.49,2,7.8,7.8,0,0,1-5.53-2A6.7,6.7,0,0,1,491.14,262.16ZM547.43,316a8.85,8.85,0,0,0,6.09-2.07,7.21,7.21,0,0,0,2.44-5.48h12.7a17.52,17.52,0,0,1-2.81,9.47,18.69,18.69,0,0,1-7.59,6.65,23.66,23.66,0,0,1-10.6,2.35q-10.87,0-17.15-6.89t-6.28-19.13V300q0-11.71,6.23-18.7t17.11-7q9.51,0,15.23,5.44t5.86,14.39H556a9.13,9.13,0,0,0-2.44-6.37,8.09,8.09,0,0,0-6.19-2.49,8.22,8.22,0,0,0-7.17,3.47q-2.38,3.42-2.39,11.16v1.4q0,7.83,2.39,11.25T547.43,316Zm36.46-15.85a30.18,30.18,0,0,1,2.9-13.45,21.27,21.27,0,0,1,8.35-9.14,24.48,24.48,0,0,1,12.7-3.24q10.26,0,16.74,6.29t7.26,17.06l.09,3.47q0,11.67-6.51,18.75t-17.49,7q-11,0-17.53-7t-6.51-19.13Zm13.54,1q0,7.21,2.72,11.06a9.81,9.81,0,0,0,15.47,0q2.77-3.81,2.77-12.1,0-7.08-2.77-11a9,9,0,0,0-7.78-3.89,8.86,8.86,0,0,0-7.69,3.89Q597.44,293.05,597.43,301.16Z" transform="translate(-245.09 -254)"/><ellipse class="cls-2" cx="182.41" cy="90" rx="174.5" ry="8"/></svg>